<?xml version="1.0" encoding="UTF-8" standalone="no"?>
<svg width="373px" height="20px" viewBox="0 0 373 20" version="1.1" xmlns="http://www.w3.org/2000/svg" xmlns:xlink="http://www.w3.org/1999/xlink" xmlns:sketch="http://www.bohemiancoding.com/sketch/ns">
    <!-- Generator: Sketch 3.1.1 (8761) - http://www.bohemiancoding.com/sketch -->
    <title>and merriweather for</title>
    <desc>Created with Sketch.</desc>
    <defs></defs>
    <g id="Amongst-Friends" stroke="none" stroke-width="1" fill="none" fill-rule="evenodd" sketch:type="MSPage">
        <g id="Desktop-HD-6" sketch:type="MSArtboardGroup" transform="translate(-534.000000, -458.000000)" fill="#353535">
            <path d="M540.469238,472.200688 C539.707516,473.114755 538.81397,473.571781 537.788574,473.571781 C536.839351,473.571781 536.109866,473.214363 535.600098,472.499516 C535.125486,471.831544 534.888184,470.923349 534.888184,469.774906 C534.888184,468.831542 535.113767,467.858896 535.564941,466.856938 C536.314945,465.181148 537.428215,464.056159 538.904785,463.481938 C539.420413,463.276858 539.965329,463.17432 540.539551,463.17432 C541.113772,463.17432 541.708493,463.276858 542.32373,463.481938 L543.369629,463.183109 L542.218262,471.752445 C542.188965,471.992681 542.208007,472.164066 542.275391,472.266605 C542.342774,472.369145 542.439452,472.420414 542.56543,472.420414 C542.691407,472.420414 542.921385,472.28565 543.255371,472.016117 L543.527832,472.481938 C543.428222,472.663579 543.249513,472.845218 542.991699,473.026859 C542.470212,473.390142 541.995608,473.571781 541.567871,473.571781 C540.823727,473.571781 540.45166,473.217293 540.45166,472.508305 L540.45166,472.385258 L540.469238,472.200688 Z M541.471191,464.536625 C541.195799,464.343265 540.829592,464.246586 540.372559,464.246586 C539.915525,464.246586 539.515627,464.328616 539.172852,464.49268 C538.830076,464.656743 538.523927,464.876467 538.254395,465.151859 C537.984862,465.427251 537.751954,465.745119 537.555664,466.105473 C537.359374,466.465826 537.196778,466.842287 537.067871,467.234867 C536.815917,468.002449 536.689941,468.689454 536.689941,469.295902 C536.689941,469.902351 536.722168,470.376955 536.786621,470.71973 C536.851075,471.062506 536.944824,471.351077 537.067871,471.585453 C537.319825,472.077643 537.668455,472.323734 538.11377,472.323734 C538.863773,472.323734 539.561032,471.989753 540.205566,471.321781 C540.387208,471.13428 540.53955,470.952642 540.662598,470.776859 L541.471191,464.536625 Z M552.439941,473.58057 C551.678219,473.58057 551.317871,473.193855 551.358887,472.420414 C551.382324,472.039553 551.426269,471.646979 551.490723,471.24268 L551.657715,470.258305 C551.687012,470.059085 551.755859,469.667976 551.864258,469.084965 C551.972657,468.501954 552.050293,468.052252 552.097168,467.735844 C552.220215,466.979981 552.281738,466.410162 552.281738,466.026371 C552.281738,465.64258 552.258301,465.359868 552.211426,465.178227 C552.164551,464.996585 552.097168,464.858891 552.009277,464.765141 C551.88623,464.630374 551.678224,464.562992 551.385254,464.562992 C551.092284,464.562992 550.815431,464.618656 550.554688,464.729984 C550.293944,464.841313 550.03174,464.996585 549.768066,465.195805 C549.211423,465.617682 548.710451,466.139161 548.265137,466.760258 L547.368652,473.396 L545.654785,473.396 L546.797363,464.932133 L545.936035,464.413578 L546.094238,463.631352 L548.221191,463.17432 L548.643066,463.385258 L548.467285,465.248539 C549.246586,464.293456 550.116694,463.65772 551.077637,463.341313 C551.399904,463.229984 551.719237,463.17432 552.035645,463.17432 C552.352052,463.17432 552.631835,463.21973 552.875,463.310551 C553.118165,463.401372 553.327636,463.552249 553.503418,463.763188 C553.860842,464.196783 554.039551,464.885253 554.039551,465.828617 C554.039551,466.320807 553.975098,466.903809 553.846191,467.577641 C553.717285,468.251472 553.620606,468.761233 553.556152,469.106938 C553.251463,470.85304 553.140136,471.901858 553.222168,472.253422 C553.245606,472.37061 553.321777,472.429203 553.450684,472.429203 C553.57959,472.429203 553.811033,472.294439 554.14502,472.024906 L554.41748,472.481938 C554.159667,472.874518 553.734866,473.19385 553.143066,473.439945 C552.920409,473.533696 552.686036,473.58057 552.439941,473.58057 L552.439941,473.58057 Z M562.942871,473.571781 C562.239743,473.571781 561.888184,473.211433 561.888184,472.490727 L561.888184,472.385258 L561.888184,472.147953 C561.372556,472.786628 560.745609,473.220218 560.007324,473.448734 C559.737792,473.530766 559.405275,473.571781 559.009766,473.571781 C558.614256,473.571781 558.234865,473.476567 557.871582,473.286137 C557.508299,473.095706 557.206544,472.833502 556.966309,472.499516 C556.491697,471.831544 556.254395,470.923349 556.254395,469.774906 C556.254395,468.831542 556.479978,467.858896 556.931152,466.856938 C557.681156,465.181148 558.794426,464.056159 560.270996,463.481938 C560.786624,463.276858 561.284666,463.17432 561.765137,463.17432 C562.245608,463.17432 562.711424,463.227054 563.162598,463.332523 L563.61084,460.370609 L562.529785,459.99268 L562.714355,459.263188 L565.034668,458.894047 L565.500488,459.131352 L563.672363,471.752445 C563.60791,472.19776 563.666503,472.420414 563.848145,472.420414 C564.029786,472.420414 564.287596,472.28565 564.621582,472.016117 L564.894043,472.473148 C564.63037,472.865729 564.214358,473.185061 563.645996,473.431156 C563.423339,473.524907 563.188966,473.571781 562.942871,473.571781 L562.942871,473.571781 Z M562.960449,464.633305 C562.66162,464.375491 562.269045,464.246586 561.782715,464.246586 C561.296384,464.246586 560.881838,464.330081 560.539062,464.497074 C560.196287,464.664067 559.890138,464.889651 559.620605,465.173832 C559.351073,465.458013 559.118165,465.783205 558.921875,466.149418 C558.725585,466.515631 558.562989,466.897951 558.434082,467.296391 C558.182128,468.081551 558.056152,468.885742 558.056152,469.708988 C558.056152,470.532235 558.180663,471.17383 558.429688,471.633793 C558.678712,472.093756 559.017088,472.323734 559.444824,472.323734 C560.17139,472.323734 560.874508,471.983894 561.554199,471.304203 C561.7417,471.116702 561.899902,470.935063 562.028809,470.759281 L562.960449,464.633305 Z M583.632324,473.571781 C582.935055,473.571781 582.586426,473.229011 582.586426,472.543461 C582.586426,472.051271 582.656738,471.348153 582.797363,470.434086 L583.087402,468.632328 C583.280763,467.425291 583.377441,466.594733 583.377441,466.140629 C583.377441,465.686525 583.352539,465.368657 583.302734,465.187016 C583.252929,465.005374 583.187012,464.87061 583.10498,464.782719 C582.981933,464.647952 582.79297,464.58057 582.538086,464.58057 C582.283202,464.58057 582.034181,464.636234 581.791016,464.747563 C581.54785,464.858891 581.300294,465.011233 581.04834,465.204594 C580.55029,465.591314 580.078616,466.101075 579.633301,466.733891 C579.580566,467.372566 579.489747,468.113769 579.36084,468.957523 L578.79834,473.396 L577.066895,473.396 L577.559082,469.502445 L577.690918,468.667484 C577.843262,467.601073 577.919434,466.798346 577.919434,466.259281 C577.919434,465.720216 577.898926,465.359868 577.85791,465.178227 C577.816894,464.996585 577.755372,464.858891 577.67334,464.765141 C577.550292,464.630374 577.345216,464.562992 577.058105,464.562992 C576.770995,464.562992 576.497072,464.618656 576.236328,464.729984 C575.975585,464.841313 575.71338,464.996585 575.449707,465.195805 C574.893064,465.617682 574.392092,466.139161 573.946777,466.760258 L573.050293,473.396 L571.336426,473.396 L572.479004,464.932133 L571.608887,464.413578 L571.76709,463.631352 L573.894043,463.17432 L574.315918,463.385258 L574.148926,465.248539 C574.928227,464.293456 575.798335,463.65772 576.759277,463.341313 C577.081545,463.229984 577.393553,463.17432 577.695312,463.17432 C577.997072,463.17432 578.260741,463.212406 578.486328,463.288578 C578.711915,463.36475 578.906737,463.487796 579.070801,463.657719 C579.404787,464.003424 579.601074,464.565918 579.659668,465.345219 C580.42725,464.337401 581.265132,463.669439 582.17334,463.341313 C582.489748,463.229984 582.801756,463.17432 583.109375,463.17432 C583.416994,463.17432 583.692382,463.224125 583.935547,463.323734 C584.178712,463.423344 584.388183,463.581546 584.563965,463.798344 C584.938967,464.249518 585.126465,464.926269 585.126465,465.828617 C585.126465,466.29151 585.067872,466.862793 584.950684,467.542484 C584.59326,469.728042 584.401367,471.02881 584.375,471.444828 C584.348633,471.860846 584.347168,472.127445 584.370605,472.244633 C584.394043,472.361821 584.446777,472.420414 584.528809,472.420414 C584.745607,472.420414 585.064939,472.227057 585.486816,471.840336 L585.759277,472.297367 C585.612792,472.525884 585.407716,472.739749 585.144043,472.938969 C584.599118,473.360846 584.095217,473.571781 583.632324,473.571781 L583.632324,473.571781 Z M591.17334,472.350102 C592.245611,472.350102 593.241695,471.922371 594.161621,471.066898 L594.565918,471.796391 C594.272948,472.218268 593.82178,472.599123 593.212402,472.938969 C592.479977,473.360846 591.766605,473.571781 591.072266,473.571781 C590.377926,473.571781 589.808108,473.460454 589.362793,473.237797 C588.483882,472.804201 587.90381,472.086435 587.622559,471.084477 C587.505371,470.650881 587.446777,470.308111 587.446777,470.056156 C587.446777,469.804202 587.451172,469.530279 587.459961,469.234379 C587.46875,468.938479 587.536132,468.523932 587.662109,467.990727 C587.788087,467.457521 587.962401,466.952155 588.185059,466.474613 C588.407716,465.997072 588.67285,465.556158 588.980469,465.151859 C589.288087,464.74756 589.632322,464.398931 590.013184,464.105961 C590.821781,463.484864 591.69482,463.17432 592.632324,463.17432 C593.85108,463.17432 594.630369,463.616699 594.970215,464.501469 C595.075684,464.771001 595.128418,465.096193 595.128418,465.477055 C595.128418,465.857916 595.02295,466.234377 594.812012,466.606449 C594.601073,466.978521 594.325685,467.311038 593.98584,467.604008 C593.645994,467.896978 593.262209,468.150393 592.834473,468.364262 C592.406736,468.57813 591.976076,468.755374 591.54248,468.896 C590.669429,469.18897 589.916507,469.341312 589.283691,469.353031 C589.271973,469.476079 589.266113,469.590335 589.266113,469.695805 C589.266113,469.801274 589.269043,469.927249 589.274902,470.073734 C589.280762,470.220219 589.310058,470.404788 589.362793,470.627445 C589.415528,470.850103 589.488769,471.065433 589.58252,471.273441 C589.67627,471.48145 589.796386,471.664554 589.942871,471.822758 C590.270998,472.174322 590.68115,472.350102 591.17334,472.350102 L591.17334,472.350102 Z M589.327637,468.386234 C590.18311,468.345219 591.026851,468.081549 591.858887,467.595219 C592.450687,467.255373 592.872557,466.839362 593.124512,466.347172 C593.259278,466.095217 593.32666,465.778814 593.32666,465.397953 C593.32666,465.017092 593.224122,464.722661 593.019043,464.514652 C592.813964,464.306643 592.554689,464.202641 592.241211,464.202641 C591.927733,464.202641 591.645021,464.271488 591.393066,464.409184 C591.141112,464.54688 590.914064,464.729983 590.711914,464.9585 C590.509765,465.187017 590.328126,465.447756 590.166992,465.740727 C590.005859,466.033697 589.8667,466.335452 589.749512,466.646 C589.538573,467.23194 589.39795,467.812013 589.327637,468.386234 L589.327637,468.386234 Z M598.187012,464.940922 L597.308105,464.413578 L597.466309,463.631352 L599.593262,463.17432 L600.015137,463.385258 L599.830566,465.380375 C600.264162,464.513183 600.937984,463.862799 601.852051,463.429203 C602.203615,463.26514 602.508299,463.183109 602.766113,463.183109 C603.211428,463.183109 603.472168,463.221195 603.54834,463.297367 L603.161621,465.125492 C602.997558,465.043461 602.752931,465.002445 602.427734,465.002445 C602.102537,465.002445 601.82129,465.037601 601.583984,465.107914 C601.346679,465.178227 601.110841,465.292484 600.876465,465.450688 C600.343259,465.81983 599.921388,466.370606 599.61084,467.103031 L598.828613,473.396 L597.114746,473.396 L598.187012,464.940922 Z M605.534668,464.940922 L604.655762,464.413578 L604.813965,463.631352 L606.940918,463.17432 L607.362793,463.385258 L607.178223,465.380375 C607.611819,464.513183 608.28564,463.862799 609.199707,463.429203 C609.551271,463.26514 609.855956,463.183109 610.11377,463.183109 C610.559084,463.183109 610.819824,463.221195 610.895996,463.297367 L610.509277,465.125492 C610.345214,465.043461 610.100588,465.002445 609.775391,465.002445 C609.450194,465.002445 609.168946,465.037601 608.931641,465.107914 C608.694335,465.178227 608.458497,465.292484 608.224121,465.450688 C607.690915,465.81983 607.269045,466.370606 606.958496,467.103031 L606.17627,473.396 L604.462402,473.396 L605.534668,464.940922 Z M614.437988,461.196781 C614.285644,461.196781 614.14502,461.167485 614.016113,461.108891 C613.611814,460.933108 613.409668,460.625494 613.409668,460.186039 C613.409668,459.834475 613.553221,459.526861 613.840332,459.263188 C614.109865,459.011233 614.358886,458.885258 614.587402,458.885258 C614.815919,458.885258 614.997558,458.911625 615.132324,458.964359 C615.542483,459.134282 615.747559,459.430178 615.747559,459.852055 C615.747559,460.209478 615.609865,460.528811 615.334473,460.810063 C615.070799,461.067876 614.771974,461.196781 614.437988,461.196781 L614.437988,461.196781 Z M613.137207,473.571781 C612.410641,473.571781 612.047363,473.2378 612.047363,472.569828 C612.047363,472.171389 612.144042,471.368662 612.337402,470.161625 L613.154785,464.782719 L611.854004,464.334477 L612.012207,463.622563 L614.666504,463.17432 L615.097168,463.385258 L613.875488,471.752445 C613.85791,471.863774 613.849121,471.960453 613.849121,472.042484 C613.849121,472.294439 613.922363,472.420414 614.068848,472.420414 C614.285646,472.420414 614.599119,472.224127 615.009277,471.831547 L615.290527,472.297367 C614.997557,472.754401 614.531741,473.126467 613.893066,473.413578 C613.652831,473.519047 613.40088,473.571781 613.137207,473.571781 L613.137207,473.571781 Z M618.507324,470.275883 L617.760254,464.914555 C617.660644,464.393068 617.35596,464.296389 616.846191,464.624516 L616.58252,464.097172 C616.840333,463.757326 617.2124,463.487798 617.69873,463.288578 C617.89795,463.212406 618.111815,463.17432 618.340332,463.17432 C618.937991,463.17432 619.304199,463.405763 619.438965,463.868656 C619.48584,464.015141 619.518066,464.185062 619.535645,464.378422 L619.992676,470.407719 L620.089355,472.033695 L620.766113,470.557133 L623.868652,463.244633 L625.397949,463.244633 L626.083496,472.033695 L627.059082,470.557133 C627.86768,469.30908 628.444822,467.955578 628.790527,466.496586 C628.937012,465.875489 628.989746,465.452153 628.94873,465.226566 C628.907715,465.000979 628.872559,464.832524 628.843262,464.721195 L628.746582,464.413578 C628.717285,464.313968 628.702637,464.158696 628.702637,463.947758 C628.702637,463.736819 628.780273,463.55518 628.935547,463.402836 C629.090821,463.250491 629.326659,463.17432 629.643066,463.17432 C630.29346,463.17432 630.618652,463.789549 630.618652,465.020023 C630.618652,465.898934 630.179204,467.155757 629.300293,468.790531 C629.13037,469.112798 628.954591,469.423342 628.772949,469.722172 L626.443848,473.466313 L624.800293,473.562992 L624.466309,470.275883 L624.17627,466.918461 L624.114746,465.679203 L623.684082,466.92725 L621.961426,470.565922 L620.502441,473.466313 L619.025879,473.571781 L618.507324,470.275883 Z M635.663574,472.350102 C636.735845,472.350102 637.731929,471.922371 638.651855,471.066898 L639.056152,471.796391 C638.763182,472.218268 638.312015,472.599123 637.702637,472.938969 C636.970211,473.360846 636.256839,473.571781 635.5625,473.571781 C634.868161,473.571781 634.298342,473.460454 633.853027,473.237797 C632.974117,472.804201 632.394044,472.086435 632.112793,471.084477 C631.995605,470.650881 631.937012,470.308111 631.937012,470.056156 C631.937012,469.804202 631.941406,469.530279 631.950195,469.234379 C631.958984,468.938479 632.026367,468.523932 632.152344,467.990727 C632.278321,467.457521 632.452636,466.952155 632.675293,466.474613 C632.89795,465.997072 633.163084,465.556158 633.470703,465.151859 C633.778322,464.74756 634.122557,464.398931 634.503418,464.105961 C635.312016,463.484864 636.185054,463.17432 637.122559,463.17432 C638.341315,463.17432 639.120604,463.616699 639.460449,464.501469 C639.565918,464.771001 639.618652,465.096193 639.618652,465.477055 C639.618652,465.857916 639.513185,466.234377 639.302246,466.606449 C639.091308,466.978521 638.81592,467.311038 638.476074,467.604008 C638.136229,467.896978 637.752444,468.150393 637.324707,468.364262 C636.896971,468.57813 636.466311,468.755374 636.032715,468.896 C635.159664,469.18897 634.406741,469.341312 633.773926,469.353031 C633.762207,469.476079 633.756348,469.590335 633.756348,469.695805 C633.756348,469.801274 633.759277,469.927249 633.765137,470.073734 C633.770996,470.220219 633.800293,470.404788 633.853027,470.627445 C633.905762,470.850103 633.979003,471.065433 634.072754,471.273441 C634.166504,471.48145 634.28662,471.664554 634.433105,471.822758 C634.761232,472.174322 635.171384,472.350102 635.663574,472.350102 L635.663574,472.350102 Z M633.817871,468.386234 C634.673344,468.345219 635.517086,468.081549 636.349121,467.595219 C636.940921,467.255373 637.362792,466.839362 637.614746,466.347172 C637.749512,466.095217 637.816895,465.778814 637.816895,465.397953 C637.816895,465.017092 637.714356,464.722661 637.509277,464.514652 C637.304198,464.306643 637.044923,464.202641 636.731445,464.202641 C636.417967,464.202641 636.135255,464.271488 635.883301,464.409184 C635.631346,464.54688 635.404298,464.729983 635.202148,464.9585 C634.999999,465.187017 634.81836,465.447756 634.657227,465.740727 C634.496093,466.033697 634.356934,466.335452 634.239746,466.646 C634.028808,467.23194 633.888184,467.812013 633.817871,468.386234 L633.817871,468.386234 Z M646.729004,472.200688 C645.967281,473.114755 645.073736,473.571781 644.04834,473.571781 C643.099116,473.571781 642.369631,473.214363 641.859863,472.499516 C641.385252,471.831544 641.147949,470.923349 641.147949,469.774906 C641.147949,468.831542 641.373533,467.858896 641.824707,466.856938 C642.574711,465.181148 643.687981,464.056159 645.164551,463.481938 C645.680178,463.276858 646.225095,463.17432 646.799316,463.17432 C647.373538,463.17432 647.968259,463.276858 648.583496,463.481938 L649.629395,463.183109 L648.478027,471.752445 C648.44873,471.992681 648.467773,472.164066 648.535156,472.266605 C648.602539,472.369145 648.699218,472.420414 648.825195,472.420414 C648.951173,472.420414 649.181151,472.28565 649.515137,472.016117 L649.787598,472.481938 C649.687988,472.663579 649.509279,472.845218 649.251465,473.026859 C648.729978,473.390142 648.255373,473.571781 647.827637,473.571781 C647.083492,473.571781 646.711426,473.217293 646.711426,472.508305 L646.711426,472.385258 L646.729004,472.200688 Z M647.730957,464.536625 C647.455565,464.343265 647.089358,464.246586 646.632324,464.246586 C646.175291,464.246586 645.775392,464.328616 645.432617,464.49268 C645.089842,464.656743 644.783693,464.876467 644.51416,465.151859 C644.244628,465.427251 644.01172,465.745119 643.81543,466.105473 C643.61914,466.465826 643.456544,466.842287 643.327637,467.234867 C643.075682,468.002449 642.949707,468.689454 642.949707,469.295902 C642.949707,469.902351 642.981933,470.376955 643.046387,470.71973 C643.11084,471.062506 643.204589,471.351077 643.327637,471.585453 C643.579591,472.077643 643.92822,472.323734 644.373535,472.323734 C645.123539,472.323734 645.820798,471.989753 646.465332,471.321781 C646.646974,471.13428 646.799316,470.952642 646.922363,470.776859 L647.730957,464.536625 Z M653.654785,473.571781 C652.582514,473.571781 652.046387,473.047372 652.046387,471.998539 L652.046387,471.901859 C652.046387,471.720218 652.081543,471.3628 652.151855,470.829594 L652.95166,464.466313 L651.896973,464.466313 L652.072754,463.701664 L653.153809,463.288578 C653.487795,462.890139 653.877439,462.11085 654.322754,460.950688 L655.157715,460.950688 L654.858887,463.244633 L657.161621,463.244633 L656.98584,464.466313 L654.709473,464.466313 L653.97998,469.968266 C653.880371,470.677254 653.830566,471.156253 653.830566,471.405277 C653.830566,471.654302 653.84082,471.831546 653.861328,471.937016 C653.881836,472.042485 653.918457,472.124515 653.971191,472.183109 C654.064942,472.294438 654.215819,472.350102 654.423828,472.350102 C654.631837,472.350102 654.814941,472.325199 654.973145,472.275395 C655.131348,472.22559 655.28955,472.162602 655.447754,472.08643 C655.775881,471.928226 656.045409,471.770024 656.256348,471.61182 L656.414551,472.297367 C656.016111,472.783698 655.356938,473.167483 654.437012,473.448734 C654.16162,473.530766 653.90088,473.571781 653.654785,473.571781 L653.654785,473.571781 Z M665.010254,473.571781 C664.248531,473.571781 663.888183,473.187996 663.929199,472.420414 C663.958496,471.916505 664.027343,471.36573 664.135742,470.76807 C664.244141,470.170411 664.320312,469.745611 664.364258,469.493656 C664.408203,469.241702 664.459472,468.964849 664.518066,468.66309 C664.57666,468.361331 664.629394,468.052252 664.67627,467.735844 C664.793458,467.020996 664.852051,466.461432 664.852051,466.057133 C664.852051,465.652834 664.825684,465.359868 664.772949,465.178227 C664.720215,464.996585 664.646973,464.858891 664.553223,464.765141 C664.412597,464.630374 664.203126,464.562992 663.924805,464.562992 C663.646483,464.562992 663.37549,464.620121 663.111816,464.734379 C662.848143,464.848637 662.584474,465.005374 662.320801,465.204594 C661.752439,465.63233 661.251467,466.165528 660.817871,466.804203 L659.938965,473.396 L658.233887,473.396 L659.930176,460.370609 L658.893066,459.99268 L659.04248,459.263188 L661.380371,458.894047 L661.837402,459.131352 L661.002441,465.389164 C661.775883,464.35205 662.643062,463.669439 663.604004,463.341313 C663.93799,463.229984 664.267576,463.17432 664.592773,463.17432 C664.91797,463.17432 665.202147,463.21973 665.445312,463.310551 C665.688478,463.401372 665.895019,463.552249 666.064941,463.763188 C666.428224,464.196783 666.609863,464.885253 666.609863,465.828617 C666.609863,466.350104 666.545411,466.941895 666.416504,467.604008 L666.161621,468.957523 L665.933105,470.354984 C665.774902,471.351083 665.717773,471.945804 665.761719,472.139164 C665.805664,472.332524 665.868652,472.429203 665.950684,472.429203 C666.155763,472.429203 666.469236,472.265142 666.891113,471.937016 L667.163574,472.394047 C667.040527,472.599126 666.83838,472.798343 666.557129,472.991703 C665.988767,473.378424 665.473147,473.571781 665.010254,473.571781 L665.010254,473.571781 Z M672.560059,472.350102 C673.63233,472.350102 674.628413,471.922371 675.54834,471.066898 L675.952637,471.796391 C675.659667,472.218268 675.208499,472.599123 674.599121,472.938969 C673.866696,473.360846 673.153324,473.571781 672.458984,473.571781 C671.764645,473.571781 671.194826,473.460454 670.749512,473.237797 C669.870601,472.804201 669.290529,472.086435 669.009277,471.084477 C668.892089,470.650881 668.833496,470.308111 668.833496,470.056156 C668.833496,469.804202 668.837891,469.530279 668.84668,469.234379 C668.855469,468.938479 668.922851,468.523932 669.048828,467.990727 C669.174805,467.457521 669.34912,466.952155 669.571777,466.474613 C669.794435,465.997072 670.059569,465.556158 670.367188,465.151859 C670.674806,464.74756 671.019041,464.398931 671.399902,464.105961 C672.2085,463.484864 673.081538,463.17432 674.019043,463.17432 C675.237799,463.17432 676.017088,463.616699 676.356934,464.501469 C676.462403,464.771001 676.515137,465.096193 676.515137,465.477055 C676.515137,465.857916 676.409669,466.234377 676.19873,466.606449 C675.987792,466.978521 675.712404,467.311038 675.372559,467.604008 C675.032713,467.896978 674.648928,468.150393 674.221191,468.364262 C673.793455,468.57813 673.362795,468.755374 672.929199,468.896 C672.056148,469.18897 671.303226,469.341312 670.67041,469.353031 C670.658691,469.476079 670.652832,469.590335 670.652832,469.695805 C670.652832,469.801274 670.655762,469.927249 670.661621,470.073734 C670.66748,470.220219 670.696777,470.404788 670.749512,470.627445 C670.802246,470.850103 670.875488,471.065433 670.969238,471.273441 C671.062989,471.48145 671.183105,471.664554 671.32959,471.822758 C671.657716,472.174322 672.067869,472.350102 672.560059,472.350102 L672.560059,472.350102 Z M670.714355,468.386234 C671.569828,468.345219 672.41357,468.081549 673.245605,467.595219 C673.837405,467.255373 674.259276,466.839362 674.51123,466.347172 C674.645997,466.095217 674.713379,465.778814 674.713379,465.397953 C674.713379,465.017092 674.610841,464.722661 674.405762,464.514652 C674.200683,464.306643 673.941408,464.202641 673.62793,464.202641 C673.314452,464.202641 673.03174,464.271488 672.779785,464.409184 C672.527831,464.54688 672.300782,464.729983 672.098633,464.9585 C671.896483,465.187017 671.714845,465.447756 671.553711,465.740727 C671.392577,466.033697 671.253419,466.335452 671.13623,466.646 C670.925292,467.23194 670.784668,467.812013 670.714355,468.386234 L670.714355,468.386234 Z M679.57373,464.940922 L678.694824,464.413578 L678.853027,463.631352 L680.97998,463.17432 L681.401855,463.385258 L681.217285,465.380375 C681.650881,464.513183 682.324702,463.862799 683.23877,463.429203 C683.590334,463.26514 683.895018,463.183109 684.152832,463.183109 C684.598147,463.183109 684.858886,463.221195 684.935059,463.297367 L684.54834,465.125492 C684.384277,465.043461 684.13965,465.002445 683.814453,465.002445 C683.489256,465.002445 683.208009,465.037601 682.970703,465.107914 C682.733397,465.178227 682.49756,465.292484 682.263184,465.450688 C681.729978,465.81983 681.308107,466.370606 680.997559,467.103031 L680.215332,473.396 L678.501465,473.396 L679.57373,464.940922 Z M691.280762,464.501469 L690.059082,464.501469 L690.190918,463.842289 L691.500488,463.297367 L691.605957,462.673344 C691.77588,461.601073 692.229977,460.669441 692.968262,459.878422 C693.694828,459.104981 694.468258,458.718266 695.288574,458.718266 C695.874515,458.718266 696.337401,458.794437 696.677246,458.946781 L696.158691,460.423344 L695.956543,460.282719 C695.663573,460.095218 695.358888,460.001469 695.04248,460.001469 C694.726073,460.001469 694.479981,460.062992 694.304199,460.186039 C694.128417,460.309087 693.976075,460.479007 693.847168,460.695805 C693.595214,461.105963 693.419434,461.697754 693.319824,462.471195 L693.223145,463.244633 L695.288574,463.244633 L695.147949,464.501469 L693.064941,464.501469 L691.887207,473.914555 C691.734863,475.098154 691.351077,476.056153 690.73584,476.788578 C690.114743,477.532722 689.323735,477.904789 688.362793,477.904789 C687.823728,477.904789 687.404787,477.866704 687.105957,477.790531 L687.571777,476.313969 C688.128421,476.536626 688.611814,476.647953 689.021973,476.647953 C689.525881,476.647953 689.874511,475.936046 690.067871,474.512211 L691.280762,464.501469 Z M697.85498,473.29932 C696.519036,472.730958 695.851074,471.424331 695.851074,469.379398 C695.851074,467.814937 696.305171,466.408702 697.213379,465.160648 C697.816898,464.334472 698.558101,463.75733 699.437012,463.429203 C699.876467,463.25928 700.358396,463.17432 700.882812,463.17432 C701.407229,463.17432 701.883299,463.26514 702.311035,463.446781 C702.738772,463.628423 703.102049,463.892092 703.400879,464.237797 C704.016116,464.958504 704.32373,465.980954 704.32373,467.30518 C704.32373,468.928235 703.869633,470.354978 702.961426,471.585453 C702.352048,472.40577 701.607915,472.985842 700.729004,473.325688 C700.289549,473.489751 699.80762,473.571781 699.283203,473.571781 C698.758786,473.571781 698.282717,473.480962 697.85498,473.29932 L697.85498,473.29932 Z M698.79541,472.288578 C699.035646,472.429204 699.319823,472.499516 699.647949,472.499516 C699.976076,472.499516 700.276366,472.42188 700.548828,472.266605 C700.82129,472.111331 701.064452,471.900396 701.27832,471.633793 C701.492189,471.36719 701.678222,471.058111 701.836426,470.706547 C702.270022,469.716308 702.486816,468.600108 702.486816,467.357914 C702.486816,465.846188 702.11182,464.876471 701.361816,464.448734 C701.121581,464.313968 700.837404,464.246586 700.509277,464.246586 C700.181151,464.246586 699.880861,464.324222 699.608398,464.479496 C699.335936,464.63477 699.092775,464.845706 698.878906,465.112309 C698.665038,465.378911 698.479005,465.68799 698.320801,466.039555 C697.887205,467.029794 697.67041,468.145994 697.67041,469.388188 C697.67041,470.899914 698.045406,471.866701 698.79541,472.288578 L698.79541,472.288578 Z M707.391113,464.940922 L706.512207,464.413578 L706.67041,463.631352 L708.797363,463.17432 L709.219238,463.385258 L709.034668,465.380375 C709.468264,464.513183 710.142085,463.862799 711.056152,463.429203 C711.407717,463.26514 711.712401,463.183109 711.970215,463.183109 C712.41553,463.183109 712.676269,463.221195 712.752441,463.297367 L712.365723,465.125492 C712.201659,465.043461 711.957033,465.002445 711.631836,465.002445 C711.306639,465.002445 711.025392,465.037601 710.788086,465.107914 C710.55078,465.178227 710.314943,465.292484 710.080566,465.450688 C709.547361,465.81983 709.12549,466.370606 708.814941,467.103031 L708.032715,473.396 L706.318848,473.396 L707.391113,464.940922 Z M719.669434,473.571781 C718.597163,473.571781 718.061035,473.047372 718.061035,471.998539 L718.061035,471.901859 C718.061035,471.720218 718.096191,471.3628 718.166504,470.829594 L718.966309,464.466313 L717.911621,464.466313 L718.087402,463.701664 L719.168457,463.288578 C719.502443,462.890139 719.892088,462.11085 720.337402,460.950688 L721.172363,460.950688 L720.873535,463.244633 L723.17627,463.244633 L723.000488,464.466313 L720.724121,464.466313 L719.994629,469.968266 C719.895019,470.677254 719.845215,471.156253 719.845215,471.405277 C719.845215,471.654302 719.855469,471.831546 719.875977,471.937016 C719.896484,472.042485 719.933105,472.124515 719.98584,472.183109 C720.07959,472.294438 720.230468,472.350102 720.438477,472.350102 C720.646485,472.350102 720.829589,472.325199 720.987793,472.275395 C721.145997,472.22559 721.304198,472.162602 721.462402,472.08643 C721.790529,471.928226 722.060058,471.770024 722.270996,471.61182 L722.429199,472.297367 C722.03076,472.783698 721.371587,473.167483 720.45166,473.448734 C720.176268,473.530766 719.915529,473.571781 719.669434,473.571781 L719.669434,473.571781 Z M731.024902,473.571781 C730.26318,473.571781 729.902832,473.187996 729.943848,472.420414 C729.973145,471.916505 730.041992,471.36573 730.150391,470.76807 C730.25879,470.170411 730.334961,469.745611 730.378906,469.493656 C730.422852,469.241702 730.474121,468.964849 730.532715,468.66309 C730.591309,468.361331 730.644043,468.052252 730.690918,467.735844 C730.808106,467.020996 730.866699,466.461432 730.866699,466.057133 C730.866699,465.652834 730.840332,465.359868 730.787598,465.178227 C730.734863,464.996585 730.661622,464.858891 730.567871,464.765141 C730.427245,464.630374 730.217775,464.562992 729.939453,464.562992 C729.661131,464.562992 729.390138,464.620121 729.126465,464.734379 C728.862792,464.848637 728.599122,465.005374 728.335449,465.204594 C727.767087,465.63233 727.266115,466.165528 726.83252,466.804203 L725.953613,473.396 L724.248535,473.396 L725.944824,460.370609 L724.907715,459.99268 L725.057129,459.263188 L727.39502,458.894047 L727.852051,459.131352 L727.01709,465.389164 C727.790531,464.35205 728.65771,463.669439 729.618652,463.341313 C729.952638,463.229984 730.282225,463.17432 730.607422,463.17432 C730.932619,463.17432 731.216796,463.21973 731.459961,463.310551 C731.703126,463.401372 731.909667,463.552249 732.07959,463.763188 C732.442873,464.196783 732.624512,464.885253 732.624512,465.828617 C732.624512,466.350104 732.560059,466.941895 732.431152,467.604008 L732.17627,468.957523 L731.947754,470.354984 C731.78955,471.351083 731.732422,471.945804 731.776367,472.139164 C731.820313,472.332524 731.8833,472.429203 731.965332,472.429203 C732.170411,472.429203 732.483885,472.265142 732.905762,471.937016 L733.178223,472.394047 C733.055175,472.599126 732.853029,472.798343 732.571777,472.991703 C732.003415,473.378424 731.487795,473.571781 731.024902,473.571781 L731.024902,473.571781 Z M738.574707,472.350102 C739.646978,472.350102 740.643062,471.922371 741.562988,471.066898 L741.967285,471.796391 C741.674315,472.218268 741.223148,472.599123 740.61377,472.938969 C739.881344,473.360846 739.167972,473.571781 738.473633,473.571781 C737.779293,473.571781 737.209475,473.460454 736.76416,473.237797 C735.88525,472.804201 735.305177,472.086435 735.023926,471.084477 C734.906738,470.650881 734.848145,470.308111 734.848145,470.056156 C734.848145,469.804202 734.852539,469.530279 734.861328,469.234379 C734.870117,468.938479 734.937499,468.523932 735.063477,467.990727 C735.189454,467.457521 735.363768,466.952155 735.586426,466.474613 C735.809083,465.997072 736.074217,465.556158 736.381836,465.151859 C736.689455,464.74756 737.03369,464.398931 737.414551,464.105961 C738.223149,463.484864 739.096187,463.17432 740.033691,463.17432 C741.252448,463.17432 742.031737,463.616699 742.371582,464.501469 C742.477051,464.771001 742.529785,465.096193 742.529785,465.477055 C742.529785,465.857916 742.424317,466.234377 742.213379,466.606449 C742.00244,466.978521 741.727052,467.311038 741.387207,467.604008 C741.047362,467.896978 740.663576,468.150393 740.23584,468.364262 C739.808103,468.57813 739.377444,468.755374 738.943848,468.896 C738.070796,469.18897 737.317874,469.341312 736.685059,469.353031 C736.67334,469.476079 736.66748,469.590335 736.66748,469.695805 C736.66748,469.801274 736.67041,469.927249 736.67627,470.073734 C736.682129,470.220219 736.711426,470.404788 736.76416,470.627445 C736.816895,470.850103 736.890136,471.065433 736.983887,471.273441 C737.077637,471.48145 737.197753,471.664554 737.344238,471.822758 C737.672365,472.174322 738.082517,472.350102 738.574707,472.350102 L738.574707,472.350102 Z M736.729004,468.386234 C737.584477,468.345219 738.428218,468.081549 739.260254,467.595219 C739.852054,467.255373 740.273925,466.839362 740.525879,466.347172 C740.660645,466.095217 740.728027,465.778814 740.728027,465.397953 C740.728027,465.017092 740.625489,464.722661 740.42041,464.514652 C740.215331,464.306643 739.956056,464.202641 739.642578,464.202641 C739.3291,464.202641 739.046388,464.271488 738.794434,464.409184 C738.542479,464.54688 738.315431,464.729983 738.113281,464.9585 C737.911132,465.187017 737.729493,465.447756 737.568359,465.740727 C737.407226,466.033697 737.268067,466.335452 737.150879,466.646 C736.93994,467.23194 736.799317,467.812013 736.729004,468.386234 L736.729004,468.386234 Z M750.36084,473.29932 C749.024896,472.730958 748.356934,471.424331 748.356934,469.379398 C748.356934,467.814937 748.811031,466.408702 749.719238,465.160648 C750.322757,464.334472 751.06396,463.75733 751.942871,463.429203 C752.382326,463.25928 752.864255,463.17432 753.388672,463.17432 C753.913089,463.17432 754.389158,463.26514 754.816895,463.446781 C755.244631,463.628423 755.607909,463.892092 755.906738,464.237797 C756.521976,464.958504 756.82959,465.980954 756.82959,467.30518 C756.82959,468.928235 756.375493,470.354978 755.467285,471.585453 C754.857907,472.40577 754.113774,472.985842 753.234863,473.325688 C752.795408,473.489751 752.313479,473.571781 751.789062,473.571781 C751.264646,473.571781 750.788576,473.480962 750.36084,473.29932 L750.36084,473.29932 Z M751.30127,472.288578 C751.541505,472.429204 751.825682,472.499516 752.153809,472.499516 C752.481935,472.499516 752.782225,472.42188 753.054688,472.266605 C753.32715,472.111331 753.570311,471.900396 753.78418,471.633793 C753.998048,471.36719 754.184081,471.058111 754.342285,470.706547 C754.775881,469.716308 754.992676,468.600108 754.992676,467.357914 C754.992676,465.846188 754.61768,464.876471 753.867676,464.448734 C753.62744,464.313968 753.343263,464.246586 753.015137,464.246586 C752.68701,464.246586 752.38672,464.324222 752.114258,464.479496 C751.841796,464.63477 751.598634,464.845706 751.384766,465.112309 C751.170897,465.378911 750.984864,465.68799 750.82666,466.039555 C750.393064,467.029794 750.17627,468.145994 750.17627,469.388188 C750.17627,470.899914 750.551266,471.866701 751.30127,472.288578 L751.30127,472.288578 Z M763.10498,473.272953 C762.595212,473.472173 762.105959,473.571781 761.637207,473.571781 C761.168455,473.571781 760.714358,473.524907 760.274902,473.431156 L759.650879,477.966313 L757.980957,477.966313 L759.765137,464.77393 L758.807129,464.325688 L758.965332,463.631352 L761.268066,463.17432 L761.681152,463.385258 L761.522949,464.466313 C762.237797,463.60498 763.087397,463.17432 764.071777,463.17432 C765.056157,463.17432 765.809079,463.534668 766.330566,464.255375 C766.816897,464.929206 767.060059,465.837401 767.060059,466.979984 C767.060059,468.479992 766.567876,469.915524 765.583496,471.286625 C764.909665,472.229989 764.083501,472.892092 763.10498,473.272953 L763.10498,473.272953 Z M760.450684,472.191898 C760.755373,472.402837 761.146482,472.508305 761.624023,472.508305 C762.101565,472.508305 762.507323,472.424809 762.841309,472.257816 C763.175295,472.090823 763.472655,471.86524 763.733398,471.581059 C763.994142,471.296877 764.219726,470.971685 764.410156,470.605473 C764.600587,470.23926 764.757324,469.856939 764.880371,469.4585 C765.132325,468.661621 765.258301,467.8545 765.258301,467.037113 C765.258301,466.219726 765.126466,465.581061 764.862793,465.121098 C764.59912,464.661134 764.238772,464.431156 763.781738,464.431156 C763.107907,464.431156 762.442874,464.756348 761.786621,465.406742 C761.60498,465.582524 761.449708,465.758304 761.320801,465.934086 L760.450684,472.191898 Z M770.760254,473.571781 C769.687983,473.571781 769.151855,473.047372 769.151855,471.998539 L769.151855,471.901859 C769.151855,471.720218 769.187011,471.3628 769.257324,470.829594 L770.057129,464.466313 L769.002441,464.466313 L769.178223,463.701664 L770.259277,463.288578 C770.593263,462.890139 770.982908,462.11085 771.428223,460.950688 L772.263184,460.950688 L771.964355,463.244633 L774.26709,463.244633 L774.091309,464.466313 L771.814941,464.466313 L771.085449,469.968266 C770.985839,470.677254 770.936035,471.156253 770.936035,471.405277 C770.936035,471.654302 770.946289,471.831546 770.966797,471.937016 C770.987305,472.042485 771.023926,472.124515 771.07666,472.183109 C771.170411,472.294438 771.321288,472.350102 771.529297,472.350102 C771.737306,472.350102 771.920409,472.325199 772.078613,472.275395 C772.236817,472.22559 772.395019,472.162602 772.553223,472.08643 C772.881349,471.928226 773.150878,471.770024 773.361816,471.61182 L773.52002,472.297367 C773.12158,472.783698 772.462407,473.167483 771.54248,473.448734 C771.267088,473.530766 771.006349,473.571781 770.760254,473.571781 L770.760254,473.571781 Z M778.10791,461.196781 C777.955566,461.196781 777.814942,461.167485 777.686035,461.108891 C777.281736,460.933108 777.07959,460.625494 777.07959,460.186039 C777.07959,459.834475 777.223143,459.526861 777.510254,459.263188 C777.779787,459.011233 778.028807,458.885258 778.257324,458.885258 C778.485841,458.885258 778.66748,458.911625 778.802246,458.964359 C779.212404,459.134282 779.41748,459.430178 779.41748,459.852055 C779.41748,460.209478 779.279787,460.528811 779.004395,460.810063 C778.740721,461.067876 778.441896,461.196781 778.10791,461.196781 L778.10791,461.196781 Z M776.807129,473.571781 C776.080563,473.571781 775.717285,473.2378 775.717285,472.569828 C775.717285,472.171389 775.813964,471.368662 776.007324,470.161625 L776.824707,464.782719 L775.523926,464.334477 L775.682129,463.622563 L778.336426,463.17432 L778.76709,463.385258 L777.54541,471.752445 C777.527832,471.863774 777.519043,471.960453 777.519043,472.042484 C777.519043,472.294439 777.592284,472.420414 777.73877,472.420414 C777.955567,472.420414 778.269041,472.224127 778.679199,471.831547 L778.960449,472.297367 C778.667479,472.754401 778.201663,473.126467 777.562988,473.413578 C777.322753,473.519047 777.070802,473.571781 776.807129,473.571781 L776.807129,473.571781 Z M793.409668,473.571781 C792.712399,473.571781 792.36377,473.229011 792.36377,472.543461 C792.36377,472.051271 792.434081,471.348153 792.574707,470.434086 L792.864746,468.632328 C793.058106,467.425291 793.154785,466.594733 793.154785,466.140629 C793.154785,465.686525 793.129883,465.368657 793.080078,465.187016 C793.030273,465.005374 792.964356,464.87061 792.882324,464.782719 C792.759277,464.647952 792.570314,464.58057 792.31543,464.58057 C792.060546,464.58057 791.811525,464.636234 791.568359,464.747563 C791.325194,464.858891 791.077638,465.011233 790.825684,465.204594 C790.327634,465.591314 789.855959,466.101075 789.410645,466.733891 C789.35791,467.372566 789.26709,468.113769 789.138184,468.957523 L788.575684,473.396 L786.844238,473.396 L787.336426,469.502445 L787.468262,468.667484 C787.620606,467.601073 787.696777,466.798346 787.696777,466.259281 C787.696777,465.720216 787.67627,465.359868 787.635254,465.178227 C787.594238,464.996585 787.532715,464.858891 787.450684,464.765141 C787.327636,464.630374 787.12256,464.562992 786.835449,464.562992 C786.548338,464.562992 786.274415,464.618656 786.013672,464.729984 C785.752928,464.841313 785.490724,464.996585 785.227051,465.195805 C784.670407,465.617682 784.169436,466.139161 783.724121,466.760258 L782.827637,473.396 L781.11377,473.396 L782.256348,464.932133 L781.38623,464.413578 L781.544434,463.631352 L783.671387,463.17432 L784.093262,463.385258 L783.92627,465.248539 C784.70557,464.293456 785.575679,463.65772 786.536621,463.341313 C786.858888,463.229984 787.170897,463.17432 787.472656,463.17432 C787.774416,463.17432 788.038085,463.212406 788.263672,463.288578 C788.489259,463.36475 788.684081,463.487796 788.848145,463.657719 C789.182131,464.003424 789.378418,464.565918 789.437012,465.345219 C790.204594,464.337401 791.042476,463.669439 791.950684,463.341313 C792.267091,463.229984 792.5791,463.17432 792.886719,463.17432 C793.194337,463.17432 793.469725,463.224125 793.712891,463.323734 C793.956056,463.423344 794.165526,463.581546 794.341309,463.798344 C794.71631,464.249518 794.903809,464.926269 794.903809,465.828617 C794.903809,466.29151 794.845215,466.862793 794.728027,467.542484 C794.370604,469.728042 794.178711,471.02881 794.152344,471.444828 C794.125976,471.860846 794.124512,472.127445 794.147949,472.244633 C794.171387,472.361821 794.224121,472.420414 794.306152,472.420414 C794.52295,472.420414 794.842283,472.227057 795.26416,471.840336 L795.536621,472.297367 C795.390136,472.525884 795.18506,472.739749 794.921387,472.938969 C794.376462,473.360846 793.872561,473.571781 793.409668,473.571781 L793.409668,473.571781 Z M802.778809,472.200688 C802.017086,473.114755 801.12354,473.571781 800.098145,473.571781 C799.148921,473.571781 798.419436,473.214363 797.909668,472.499516 C797.435056,471.831544 797.197754,470.923349 797.197754,469.774906 C797.197754,468.831542 797.423338,467.858896 797.874512,466.856938 C798.624515,465.181148 799.737786,464.056159 801.214355,463.481938 C801.729983,463.276858 802.274899,463.17432 802.849121,463.17432 C803.423343,463.17432 804.018063,463.276858 804.633301,463.481938 L805.679199,463.183109 L804.527832,471.752445 C804.498535,471.992681 804.517578,472.164066 804.584961,472.266605 C804.652344,472.369145 804.749023,472.420414 804.875,472.420414 C805.000977,472.420414 805.230955,472.28565 805.564941,472.016117 L805.837402,472.481938 C805.737792,472.663579 805.559083,472.845218 805.30127,473.026859 C804.779783,473.390142 804.305178,473.571781 803.877441,473.571781 C803.133297,473.571781 802.76123,473.217293 802.76123,472.508305 L802.76123,472.385258 L802.778809,472.200688 Z M803.780762,464.536625 C803.50537,464.343265 803.139162,464.246586 802.682129,464.246586 C802.225095,464.246586 801.825197,464.328616 801.482422,464.49268 C801.139647,464.656743 800.833497,464.876467 800.563965,465.151859 C800.294432,465.427251 800.061524,465.745119 799.865234,466.105473 C799.668944,466.465826 799.506348,466.842287 799.377441,467.234867 C799.125487,468.002449 798.999512,468.689454 798.999512,469.295902 C798.999512,469.902351 799.031738,470.376955 799.096191,470.71973 C799.160645,471.062506 799.254394,471.351077 799.377441,471.585453 C799.629396,472.077643 799.978025,472.323734 800.42334,472.323734 C801.173344,472.323734 801.870602,471.989753 802.515137,471.321781 C802.696778,471.13428 802.84912,470.952642 802.972168,470.776859 L803.780762,464.536625 Z M809.933105,472.420414 C810.149903,472.420414 810.466307,472.227057 810.882324,471.840336 L811.154785,472.297367 C811.037597,472.508306 810.84131,472.719241 810.565918,472.93018 C809.997556,473.357916 809.512697,473.571781 809.111328,473.571781 C808.709959,473.571781 808.428712,473.480962 808.267578,473.29932 C808.106445,473.117679 808.025879,472.812994 808.025879,472.385258 C808.025879,472.156741 808.043457,471.931157 808.078613,471.7085 L809.695801,460.370609 L808.614746,459.99268 L808.799316,459.263188 L811.102051,458.894047 L811.523926,459.131352 L809.748535,471.752445 C809.684082,472.19776 809.745605,472.420414 809.933105,472.420414 L809.933105,472.420414 Z M818.625488,464.940922 L817.746582,464.413578 L817.904785,463.631352 L820.031738,463.17432 L820.453613,463.385258 L820.269043,465.380375 C820.702639,464.513183 821.37646,463.862799 822.290527,463.429203 C822.642092,463.26514 822.946776,463.183109 823.20459,463.183109 C823.649905,463.183109 823.910644,463.221195 823.986816,463.297367 L823.600098,465.125492 C823.436034,465.043461 823.191408,465.002445 822.866211,465.002445 C822.541014,465.002445 822.259767,465.037601 822.022461,465.107914 C821.785155,465.178227 821.549318,465.292484 821.314941,465.450688 C820.781736,465.81983 820.359865,466.370606 820.049316,467.103031 L819.26709,473.396 L817.553223,473.396 L818.625488,464.940922 Z M828.196777,472.350102 C829.269048,472.350102 830.265132,471.922371 831.185059,471.066898 L831.589355,471.796391 C831.296385,472.218268 830.845218,472.599123 830.23584,472.938969 C829.503414,473.360846 828.790043,473.571781 828.095703,473.571781 C827.401364,473.571781 826.831545,473.460454 826.38623,473.237797 C825.50732,472.804201 824.927248,472.086435 824.645996,471.084477 C824.528808,470.650881 824.470215,470.308111 824.470215,470.056156 C824.470215,469.804202 824.474609,469.530279 824.483398,469.234379 C824.492188,468.938479 824.55957,468.523932 824.685547,467.990727 C824.811524,467.457521 824.985839,466.952155 825.208496,466.474613 C825.431153,465.997072 825.696288,465.556158 826.003906,465.151859 C826.311525,464.74756 826.65576,464.398931 827.036621,464.105961 C827.845219,463.484864 828.718257,463.17432 829.655762,463.17432 C830.874518,463.17432 831.653807,463.616699 831.993652,464.501469 C832.099122,464.771001 832.151855,465.096193 832.151855,465.477055 C832.151855,465.857916 832.046388,466.234377 831.835449,466.606449 C831.624511,466.978521 831.349123,467.311038 831.009277,467.604008 C830.669432,467.896978 830.285647,468.150393 829.85791,468.364262 C829.430174,468.57813 828.999514,468.755374 828.565918,468.896 C827.692867,469.18897 826.939945,469.341312 826.307129,469.353031 C826.29541,469.476079 826.289551,469.590335 826.289551,469.695805 C826.289551,469.801274 826.29248,469.927249 826.29834,470.073734 C826.304199,470.220219 826.333496,470.404788 826.38623,470.627445 C826.438965,470.850103 826.512207,471.065433 826.605957,471.273441 C826.699708,471.48145 826.819823,471.664554 826.966309,471.822758 C827.294435,472.174322 827.704587,472.350102 828.196777,472.350102 L828.196777,472.350102 Z M826.351074,468.386234 C827.206547,468.345219 828.050289,468.081549 828.882324,467.595219 C829.474124,467.255373 829.895995,466.839362 830.147949,466.347172 C830.282716,466.095217 830.350098,465.778814 830.350098,465.397953 C830.350098,465.017092 830.24756,464.722661 830.04248,464.514652 C829.837401,464.306643 829.578127,464.202641 829.264648,464.202641 C828.95117,464.202641 828.668458,464.271488 828.416504,464.409184 C828.16455,464.54688 827.937501,464.729983 827.735352,464.9585 C827.533202,465.187017 827.351563,465.447756 827.19043,465.740727 C827.029296,466.033697 826.890137,466.335452 826.772949,466.646 C826.562011,467.23194 826.421387,467.812013 826.351074,468.386234 L826.351074,468.386234 Z M839.262207,472.200688 C838.500484,473.114755 837.606939,473.571781 836.581543,473.571781 C835.632319,473.571781 834.902835,473.214363 834.393066,472.499516 C833.918455,471.831544 833.681152,470.923349 833.681152,469.774906 C833.681152,468.831542 833.906736,467.858896 834.35791,466.856938 C835.107914,465.181148 836.221184,464.056159 837.697754,463.481938 C838.213381,463.276858 838.758298,463.17432 839.33252,463.17432 C839.906741,463.17432 840.501462,463.276858 841.116699,463.481938 L842.162598,463.183109 L841.01123,471.752445 C840.981933,471.992681 841.000976,472.164066 841.068359,472.266605 C841.135743,472.369145 841.232421,472.420414 841.358398,472.420414 C841.484376,472.420414 841.714354,472.28565 842.04834,472.016117 L842.320801,472.481938 C842.221191,472.663579 842.042482,472.845218 841.784668,473.026859 C841.263181,473.390142 840.788576,473.571781 840.36084,473.571781 C839.616695,473.571781 839.244629,473.217293 839.244629,472.508305 L839.244629,472.385258 L839.262207,472.200688 Z M840.26416,464.536625 C839.988768,464.343265 839.622561,464.246586 839.165527,464.246586 C838.708494,464.246586 838.308595,464.328616 837.96582,464.49268 C837.623045,464.656743 837.316896,464.876467 837.047363,465.151859 C836.777831,465.427251 836.544923,465.745119 836.348633,466.105473 C836.152343,466.465826 835.989747,466.842287 835.86084,467.234867 C835.608885,468.002449 835.48291,468.689454 835.48291,469.295902 C835.48291,469.902351 835.515136,470.376955 835.57959,470.71973 C835.644043,471.062506 835.737792,471.351077 835.86084,471.585453 C836.112794,472.077643 836.461424,472.323734 836.906738,472.323734 C837.656742,472.323734 838.354001,471.989753 838.998535,471.321781 C839.180177,471.13428 839.332519,470.952642 839.455566,470.776859 L840.26416,464.536625 Z M850.679199,473.571781 C849.976071,473.571781 849.624512,473.211433 849.624512,472.490727 L849.624512,472.385258 L849.624512,472.147953 C849.108884,472.786628 848.481937,473.220218 847.743652,473.448734 C847.47412,473.530766 847.141604,473.571781 846.746094,473.571781 C846.350584,473.571781 845.971193,473.476567 845.60791,473.286137 C845.244627,473.095706 844.942872,472.833502 844.702637,472.499516 C844.228025,471.831544 843.990723,470.923349 843.990723,469.774906 C843.990723,468.831542 844.216306,467.858896 844.66748,466.856938 C845.417484,465.181148 846.530754,464.056159 848.007324,463.481938 C848.522952,463.276858 849.020994,463.17432 849.501465,463.17432 C849.981936,463.17432 850.447752,463.227054 850.898926,463.332523 L851.347168,460.370609 L850.266113,459.99268 L850.450684,459.263188 L852.770996,458.894047 L853.236816,459.131352 L851.408691,471.752445 C851.344238,472.19776 851.402831,472.420414 851.584473,472.420414 C851.766114,472.420414 852.023924,472.28565 852.35791,472.016117 L852.630371,472.473148 C852.366698,472.865729 851.950686,473.185061 851.382324,473.431156 C851.159667,473.524907 850.925294,473.571781 850.679199,473.571781 L850.679199,473.571781 Z M850.696777,464.633305 C850.397948,464.375491 850.005374,464.246586 849.519043,464.246586 C849.032712,464.246586 848.618166,464.330081 848.275391,464.497074 C847.932615,464.664067 847.626466,464.889651 847.356934,465.173832 C847.087401,465.458013 846.854493,465.783205 846.658203,466.149418 C846.461913,466.515631 846.299317,466.897951 846.17041,467.296391 C845.918456,468.081551 845.79248,468.885742 845.79248,469.708988 C845.79248,470.532235 845.916991,471.17383 846.166016,471.633793 C846.41504,472.093756 846.753416,472.323734 847.181152,472.323734 C847.907718,472.323734 848.610836,471.983894 849.290527,471.304203 C849.478028,471.116702 849.63623,470.935063 849.765137,470.759281 L850.696777,464.633305 Z M859.934082,472.200688 C859.172359,473.114755 858.278814,473.571781 857.253418,473.571781 C856.304194,473.571781 855.57471,473.214363 855.064941,472.499516 C854.59033,471.831544 854.353027,470.923349 854.353027,469.774906 C854.353027,468.831542 854.578611,467.858896 855.029785,466.856938 C855.779789,465.181148 856.893059,464.056159 858.369629,463.481938 C858.885256,463.276858 859.430173,463.17432 860.004395,463.17432 C860.578616,463.17432 861.173337,463.276858 861.788574,463.481938 L862.834473,463.183109 L861.683105,471.752445 C861.653808,471.992681 861.672851,472.164066 861.740234,472.266605 C861.807618,472.369145 861.904296,472.420414 862.030273,472.420414 C862.156251,472.420414 862.386229,472.28565 862.720215,472.016117 L862.992676,472.481938 C862.893066,472.663579 862.714357,472.845218 862.456543,473.026859 C861.935056,473.390142 861.460451,473.571781 861.032715,473.571781 C860.28857,473.571781 859.916504,473.217293 859.916504,472.508305 L859.916504,472.385258 L859.934082,472.200688 Z M860.936035,464.536625 C860.660643,464.343265 860.294436,464.246586 859.837402,464.246586 C859.380369,464.246586 858.98047,464.328616 858.637695,464.49268 C858.29492,464.656743 857.988771,464.876467 857.719238,465.151859 C857.449706,465.427251 857.216798,465.745119 857.020508,466.105473 C856.824218,466.465826 856.661622,466.842287 856.532715,467.234867 C856.28076,468.002449 856.154785,468.689454 856.154785,469.295902 C856.154785,469.902351 856.187011,470.376955 856.251465,470.71973 C856.315918,471.062506 856.409667,471.351077 856.532715,471.585453 C856.784669,472.077643 857.133299,472.323734 857.578613,472.323734 C858.328617,472.323734 859.025876,471.989753 859.67041,471.321781 C859.852052,471.13428 860.004394,470.952642 860.127441,470.776859 L860.936035,464.536625 Z M867.932129,473.571781 C867.299313,473.571781 866.619633,473.439947 865.893066,473.176273 L865.031738,473.571781 L866.771973,460.353031 L865.937012,459.975102 L866.121582,459.23682 L868.230957,458.894047 L868.679199,459.131352 L867.940918,464.624516 C868.450686,463.968262 869.065914,463.525884 869.786621,463.297367 C870.044435,463.215336 870.374021,463.17432 870.775391,463.17432 C871.17676,463.17432 871.56494,463.269534 871.939941,463.459965 C872.314943,463.650395 872.625487,463.91553 872.871582,464.255375 C873.357913,464.929206 873.601074,465.837401 873.601074,466.979984 C873.601074,468.479992 873.108892,469.915524 872.124512,471.286625 C871.034663,472.81007 869.637216,473.571781 867.932129,473.571781 L867.932129,473.571781 Z M866.930176,472.139164 C867.240724,472.385259 867.643552,472.508305 868.138672,472.508305 C868.633792,472.508305 869.048338,472.424809 869.382324,472.257816 C869.71631,472.090823 870.013671,471.86524 870.274414,471.581059 C870.535158,471.296877 870.760741,470.971685 870.951172,470.605473 C871.141603,470.23926 871.298339,469.856939 871.421387,469.4585 C871.673341,468.661621 871.799316,467.8545 871.799316,467.037113 C871.799316,466.219726 871.667482,465.581061 871.403809,465.121098 C871.140135,464.661134 870.779787,464.431156 870.322754,464.431156 C869.830564,464.431156 869.323733,464.621584 868.802246,465.002445 C868.36865,465.318853 868.014162,465.68799 867.73877,466.109867 L866.930176,472.139164 Z M878.188965,461.196781 C878.03662,461.196781 877.895997,461.167485 877.76709,461.108891 C877.362791,460.933108 877.160645,460.625494 877.160645,460.186039 C877.160645,459.834475 877.304198,459.526861 877.591309,459.263188 C877.860841,459.011233 878.109862,458.885258 878.338379,458.885258 C878.566896,458.885258 878.748534,458.911625 878.883301,458.964359 C879.293459,459.134282 879.498535,459.430178 879.498535,459.852055 C879.498535,460.209478 879.360841,460.528811 879.085449,460.810063 C878.821776,461.067876 878.522951,461.196781 878.188965,461.196781 L878.188965,461.196781 Z M876.888184,473.571781 C876.161617,473.571781 875.79834,473.2378 875.79834,472.569828 C875.79834,472.171389 875.895019,471.368662 876.088379,470.161625 L876.905762,464.782719 L875.60498,464.334477 L875.763184,463.622563 L878.41748,463.17432 L878.848145,463.385258 L877.626465,471.752445 C877.608887,471.863774 877.600098,471.960453 877.600098,472.042484 C877.600098,472.294439 877.673339,472.420414 877.819824,472.420414 C878.036622,472.420414 878.350096,472.224127 878.760254,471.831547 L879.041504,472.297367 C878.748534,472.754401 878.282718,473.126467 877.644043,473.413578 C877.403807,473.519047 877.151857,473.571781 876.888184,473.571781 L876.888184,473.571781 Z M883.163574,472.420414 C883.380372,472.420414 883.696775,472.227057 884.112793,471.840336 L884.385254,472.297367 C884.268066,472.508306 884.071779,472.719241 883.796387,472.93018 C883.228025,473.357916 882.743166,473.571781 882.341797,473.571781 C881.940428,473.571781 881.65918,473.480962 881.498047,473.29932 C881.336913,473.117679 881.256348,472.812994 881.256348,472.385258 C881.256348,472.156741 881.273926,471.931157 881.309082,471.7085 L882.92627,460.370609 L881.845215,459.99268 L882.029785,459.263188 L884.33252,458.894047 L884.754395,459.131352 L882.979004,471.752445 C882.91455,472.19776 882.976073,472.420414 883.163574,472.420414 L883.163574,472.420414 Z M889.148926,461.196781 C888.996581,461.196781 888.855958,461.167485 888.727051,461.108891 C888.322752,460.933108 888.120605,460.625494 888.120605,460.186039 C888.120605,459.834475 888.264159,459.526861 888.55127,459.263188 C888.820802,459.011233 889.069823,458.885258 889.29834,458.885258 C889.526857,458.885258 889.708495,458.911625 889.843262,458.964359 C890.25342,459.134282 890.458496,459.430178 890.458496,459.852055 C890.458496,460.209478 890.320802,460.528811 890.04541,460.810063 C889.781737,461.067876 889.482912,461.196781 889.148926,461.196781 L889.148926,461.196781 Z M887.848145,473.571781 C887.121578,473.571781 886.758301,473.2378 886.758301,472.569828 C886.758301,472.171389 886.85498,471.368662 887.04834,470.161625 L887.865723,464.782719 L886.564941,464.334477 L886.723145,463.622563 L889.377441,463.17432 L889.808105,463.385258 L888.586426,471.752445 C888.568848,471.863774 888.560059,471.960453 888.560059,472.042484 C888.560059,472.294439 888.6333,472.420414 888.779785,472.420414 C888.996583,472.420414 889.310057,472.224127 889.720215,471.831547 L890.001465,472.297367 C889.708495,472.754401 889.242679,473.126467 888.604004,473.413578 C888.363768,473.519047 888.111818,473.571781 887.848145,473.571781 L887.848145,473.571781 Z M893.89502,473.571781 C892.822749,473.571781 892.286621,473.047372 892.286621,471.998539 L892.286621,471.901859 C892.286621,471.720218 892.321777,471.3628 892.39209,470.829594 L893.191895,464.466313 L892.137207,464.466313 L892.312988,463.701664 L893.394043,463.288578 C893.728029,462.890139 894.117674,462.11085 894.562988,460.950688 L895.397949,460.950688 L895.099121,463.244633 L897.401855,463.244633 L897.226074,464.466313 L894.949707,464.466313 L894.220215,469.968266 C894.120605,470.677254 894.070801,471.156253 894.070801,471.405277 C894.070801,471.654302 894.081055,471.831546 894.101562,471.937016 C894.12207,472.042485 894.158691,472.124515 894.211426,472.183109 C894.305176,472.294438 894.456054,472.350102 894.664062,472.350102 C894.872071,472.350102 895.055175,472.325199 895.213379,472.275395 C895.371583,472.22559 895.529784,472.162602 895.687988,472.08643 C896.016115,471.928226 896.285643,471.770024 896.496582,471.61182 L896.654785,472.297367 C896.256346,472.783698 895.597173,473.167483 894.677246,473.448734 C894.401854,473.530766 894.141115,473.571781 893.89502,473.571781 L893.89502,473.571781 Z M896.69873,476.2085 C897.243655,476.442876 897.67285,476.560063 897.986328,476.560063 C898.299806,476.560063 898.578124,476.517582 898.821289,476.432621 C899.064454,476.34766 899.31494,476.202642 899.572754,475.997563 C900.170413,475.522951 900.665525,474.811044 901.058105,473.86182 L900.504395,473.86182 L899.010254,464.914555 C898.957519,464.732913 898.907715,464.605473 898.86084,464.53223 C898.813965,464.458988 898.718751,464.422367 898.575195,464.422367 C898.43164,464.422367 898.21924,464.548342 897.937988,464.800297 L897.683105,464.272953 C897.946779,463.880373 898.35986,463.56104 898.922363,463.314945 C899.133302,463.221195 899.350097,463.17432 899.572754,463.17432 C899.795411,463.17432 899.975585,463.202152 900.113281,463.257816 C900.250977,463.313481 900.363769,463.394046 900.45166,463.499516 C900.580567,463.669438 900.680175,463.962404 900.750488,464.378422 L901.497559,470.803227 L901.67334,473.21143 L903.070801,470.425297 L903.615723,469.186039 C904.225101,467.838376 904.600097,466.610849 904.740723,465.503422 C904.77002,465.269046 904.749512,465.055181 904.679199,464.86182 L904.529785,464.422367 C904.494629,464.322757 904.477051,464.226079 904.477051,464.132328 C904.477051,463.804201 904.557616,463.56397 904.71875,463.411625 C904.879884,463.25928 905.083495,463.183109 905.32959,463.183109 C906.079594,463.183109 906.45459,463.739744 906.45459,464.853031 C906.45459,466.019053 905.988774,467.483882 905.057129,469.247563 L903.220215,472.789555 C902.335445,474.441907 901.579593,475.640137 900.952637,476.384281 C900.519041,477.005378 899.851079,477.441897 898.94873,477.693852 C898.608885,477.787602 898.31006,477.834477 898.052246,477.834477 C897.794432,477.834477 897.598145,477.827152 897.463379,477.812504 C897.328613,477.797855 897.187989,477.778813 897.041504,477.755375 C896.68994,477.696781 896.440919,477.644047 896.294434,477.597172 L896.69873,476.2085 Z" id="and-merriweather-for" sketch:type="MSShapeGroup"></path>
        </g>
    </g>
</svg>