<?xml version="1.0" encoding="UTF-8" standalone="no"?>
<svg width="662px" height="99px" viewBox="0 0 662 99" version="1.1" xmlns="http://www.w3.org/2000/svg" xmlns:xlink="http://www.w3.org/1999/xlink" xmlns:sketch="http://www.bohemiancoding.com/sketch/ns">
    <!-- Generator: Sketch 3.1.1 (8761) - http://www.bohemiancoding.com/sketch -->
    <title>FRANKLIN GOTHIC</title>
    <desc>Created with Sketch.</desc>
    <defs></defs>
    <g id="Amongst-Friends" stroke="none" stroke-width="1" fill="none" fill-rule="evenodd" sketch:type="MSPage">
        <g id="Desktop-HD-6" sketch:type="MSArtboardGroup" transform="translate(-391.000000, -315.000000)" fill="#353535">
            <path d="M401.208,412.5 L401.208,367.284 L418.056,367.284 L418.056,357.924 L401.208,357.924 L401.208,325.524 L421.656,325.524 L421.656,316.452 L391.128,316.452 L391.128,412.5 L401.208,412.5 Z M469,412.5 L457.768,368.292 C462.808,365.7 467.272,360.804 467.272,343.668 C467.272,316.452 454.168,316.452 445.672,316.452 L431.848,316.452 L431.848,412.5 L441.928,412.5 L441.928,370.452 L448.264,370.452 L458.344,412.5 L469,412.5 Z M441.928,325.524 L446.104,325.524 C451.576,325.524 457.048,325.524 457.048,343.092 C457.048,357.924 454.168,361.38 446.68,361.38 L441.928,361.38 L441.928,325.524 Z M516.344,412.5 L500.936,316.452 L491,316.452 L476.024,412.5 L484.808,412.5 L489.128,384.132 L502.232,384.132 L506.696,412.5 L516.344,412.5 Z M489.992,375.492 L493.16,351.588 C493.88,345.396 495.032,335.028 495.464,329.412 C496.04,336.036 496.328,339.636 497.912,351.444 L501.224,375.492 L489.992,375.492 Z M565.416,412.5 L565.416,316.452 L556.632,316.452 L556.632,367.86 C556.632,370.452 556.776,374.916 557.208,388.596 C555.48,380.532 552.6,371.316 551.592,367.572 L536.904,316.452 L528.264,316.452 L528.264,412.5 L537.048,412.5 L537.048,362.964 C537.048,359.94 536.472,344.964 536.328,341.652 C537.768,348.276 541.08,359.652 542.088,362.82 L557.064,412.5 L565.416,412.5 Z M623.128,412.5 L603.688,356.916 L620.68,316.452 L611.032,316.452 L593.896,359.076 L593.896,316.452 L583.816,316.452 L583.816,412.5 L593.896,412.5 L593.896,373.332 L596.92,365.988 L612.616,412.5 L623.128,412.5 Z M661.688,412.5 L661.688,403.428 L642.104,403.428 L642.104,316.452 L632.024,316.452 L632.024,412.5 L661.688,412.5 Z M682.968,412.5 L682.968,316.452 L672.744,316.452 L672.744,412.5 L682.968,412.5 Z M738.376,412.5 L738.376,316.452 L729.592,316.452 L729.592,367.86 C729.592,370.452 729.736,374.916 730.168,388.596 C728.44,380.532 725.56,371.316 724.552,367.572 L709.864,316.452 L701.224,316.452 L701.224,412.5 L710.008,412.5 L710.008,362.964 C710.008,359.94 709.432,344.964 709.288,341.652 C710.728,348.276 714.04,359.652 715.048,362.82 L730.024,412.5 L738.376,412.5 Z M822.552,412.932 L822.552,364.26 L803.544,364.26 L803.544,373.332 L812.904,373.332 L812.904,384.276 C812.904,393.492 811.464,403.716 803.4,403.716 C796.344,403.716 794.904,396.516 794.184,393.204 C792.6,384.996 792.6,370.164 792.6,363.396 C792.6,360.516 792.6,343.236 794.04,335.316 C794.76,331.428 796.344,324.948 802.824,324.948 C808.296,324.948 810.456,329.268 811.752,340.5 L821.112,338.628 C820.824,333.156 819.528,328.98 818.664,326.82 C816.36,320.916 812.184,315.444 802.824,315.444 C785.256,315.444 782.088,332.436 782.088,365.124 C782.088,394.5 784.68,413.22 801.816,413.22 C810.744,413.22 813.336,407.604 814.488,404.868 L816.36,412.932 L822.552,412.932 Z M837.64,364.692 C837.64,402.996 843.4,413.652 858.232,413.652 C876.376,413.652 878.68,394.5 878.68,363.396 C878.68,329.124 873.784,315.3 857.944,315.3 C839.8,315.3 837.64,336.036 837.64,364.692 L837.64,364.692 Z M848.152,364.116 C848.152,355.332 848.152,336.324 851.608,328.98 C852.76,326.82 854.92,325.092 858.088,325.092 C865,325.092 868.168,330.42 868.168,363.972 C868.168,373.332 867.736,389.028 866.152,396.084 C864.712,401.988 862.696,404.436 858.376,404.436 C853.336,404.436 851.32,400.548 850.168,395.796 C848.296,388.452 848.152,372.18 848.152,364.26 L848.152,364.116 Z M908.888,412.5 L908.888,325.524 L921.128,325.524 L921.128,316.452 L886.712,316.452 L886.712,325.524 L898.808,325.524 L898.808,412.5 L908.888,412.5 Z M968.184,412.5 L968.184,316.452 L958.104,316.452 L958.104,357.204 L941.112,357.204 L941.112,316.452 L931.032,316.452 L931.032,412.5 L941.112,412.5 L941.112,366.276 L958.104,366.276 L958.104,412.5 L968.184,412.5 Z M996.808,412.5 L996.808,316.452 L986.584,316.452 L986.584,412.5 L996.808,412.5 Z M1042.424,389.028 C1042.424,393.78 1042.136,404.148 1034.216,404.148 C1029.464,404.148 1027.304,400.98 1025.864,394.788 C1023.848,386.148 1023.848,367.716 1023.848,363.972 C1023.848,354.324 1023.848,343.38 1025.576,334.884 C1026.44,330.564 1028.024,325.236 1033.784,325.236 C1040.984,325.236 1041.56,333.012 1042.28,341.076 L1052.216,339.492 C1051.496,330.708 1049.768,315.444 1033.352,315.444 C1018.232,315.444 1013.048,330.132 1013.048,364.404 C1013.048,401.988 1018.952,413.796 1033.496,413.796 C1048.616,413.796 1051.496,399.252 1051.784,390.9 L1042.424,389.028 Z" id="FRANKLIN-GOTHIC" sketch:type="MSShapeGroup"></path>
        </g>
    </g>
</svg>