<?xml version="1.0" encoding="UTF-8" standalone="no"?>
<svg width="622px" height="118px" viewBox="0 0 622 118" version="1.1" xmlns="http://www.w3.org/2000/svg" xmlns:xlink="http://www.w3.org/1999/xlink" xmlns:sketch="http://www.bohemiancoding.com/sketch/ns">
    <!-- Generator: Sketch 3.1 (8751) - http://www.bohemiancoding.com/sketch -->
    <title>TITLING GOTHIC</title>
    <desc>Created with Sketch.</desc>
    <defs></defs>
    <g id="Kuvva" stroke="none" stroke-width="1" fill="none" fill-rule="evenodd" sketch:type="MSPage">
        <g id="Desktop-HD-4" sketch:type="MSArtboardGroup" transform="translate(-406.000000, -322.000000)" fill="#FFFFFF">
            <path d="M449.216,333.22 L449.216,323.14 L406.304,323.14 L406.304,333.22 L422.288,333.22 L422.288,438.052 L433.088,438.052 L433.088,333.22 L449.216,333.22 Z M470.064,438.052 L470.064,323.14 L459.12,323.14 L459.12,438.052 L470.064,438.052 Z M522.88,333.22 L522.88,323.14 L479.968,323.14 L479.968,333.22 L495.952,333.22 L495.952,438.052 L506.752,438.052 L506.752,333.22 L522.88,333.22 Z M569.36,438.052 L569.36,428.116 L543.584,428.116 L543.584,323.14 L532.784,323.14 L532.784,438.052 L569.36,438.052 Z M590.928,438.052 L590.928,323.14 L579.984,323.14 L579.984,438.052 L590.928,438.052 Z M647.776,438.052 L647.776,323.14 L637.984,323.14 L637.984,407.092 L618.112,323.14 L606.16,323.14 L606.16,438.052 L615.952,438.052 L615.952,356.836 L635.968,438.052 L647.776,438.052 Z M704.48,438.052 C704.48,438.052 704.336,424.66 704.336,411.268 L704.336,376.564 L680.72,376.564 L680.72,386.5 L693.824,386.5 C693.824,386.788 693.824,416.164 693.68,419.332 C692.96,425.668 689.936,429.556 683.456,429.556 C673.232,429.556 671.936,419.62 671.936,380.74 C671.936,343.012 673.088,332.932 683.312,332.932 C692.384,332.932 693.392,339.988 693.392,359.572 L703.904,359.572 C703.904,337.972 702.032,322.708 683.168,322.708 C662.864,322.708 660.992,340.996 660.992,380.596 C660.992,423.796 663.584,438.916 682.16,438.916 C689.36,438.916 694.4,435.892 696.416,432.004 L696.848,438.052 L704.48,438.052 Z M783.616,438.052 C783.616,438.052 783.472,424.66 783.472,411.268 L783.472,376.564 L759.856,376.564 L759.856,386.5 L772.96,386.5 C772.96,386.788 772.96,416.164 772.816,419.332 C772.096,425.668 769.072,429.556 762.592,429.556 C752.368,429.556 751.072,419.62 751.072,380.74 C751.072,343.012 752.224,332.932 762.448,332.932 C771.52,332.932 772.528,339.988 772.528,359.572 L783.04,359.572 C783.04,337.972 781.168,322.708 762.304,322.708 C742,322.708 740.128,340.996 740.128,380.596 C740.128,423.796 742.72,438.916 761.296,438.916 C768.496,438.916 773.536,435.892 775.552,432.004 L775.984,438.052 L783.616,438.052 Z M817.568,322.708 C811.088,322.708 806.48,324.436 803.168,327.604 C795.104,335.38 794.528,352.804 794.528,381.028 C794.528,409.108 794.96,426.388 802.88,434.308 C806.192,437.62 810.944,439.348 817.568,439.348 C824.192,439.348 828.8,437.62 832.112,434.308 C840.176,426.244 840.608,409.108 840.608,381.028 C840.608,353.092 840.32,335.524 832.256,327.748 C828.944,324.292 824.192,322.708 817.568,322.708 L817.568,322.708 Z M817.568,429.268 C806.624,429.268 805.472,420.916 805.472,381.028 C805.472,341.14 806.768,332.932 817.568,332.932 C828.368,332.932 829.664,341.14 829.664,381.028 C829.664,420.916 828.224,429.268 817.568,429.268 L817.568,429.268 Z M890.832,333.22 L890.832,323.14 L847.92,323.14 L847.92,333.22 L863.904,333.22 L863.904,438.052 L874.704,438.052 L874.704,333.22 L890.832,333.22 Z M942.64,438.052 L942.64,323.14 L932.128,323.14 L932.128,374.98 L911.392,374.98 L911.392,323.14 L900.736,323.14 L900.736,438.052 L911.392,438.052 L911.392,385.204 L932.128,385.204 L932.128,438.052 L942.64,438.052 Z M968.96,438.052 L968.96,323.14 L958.016,323.14 L958.016,438.052 L968.96,438.052 Z M1027.824,400.036 L1017.168,400.036 C1016.304,415.588 1017.024,429.268 1005.648,429.268 C994.704,429.268 993.12,423.076 993.12,379.876 C993.12,340.276 994.56,332.932 1005.216,332.932 C1015.296,332.932 1016.88,341.86 1016.88,361.444 L1027.536,361.444 C1027.536,339.988 1026.24,322.708 1005.072,322.708 C983.04,322.708 982.176,341.716 982.176,379.876 C982.176,425.956 984.768,439.348 1005.504,439.348 C1025.088,439.348 1027.536,422.068 1027.824,400.036 L1027.824,400.036 Z" id="TITLING-GOTHIC" sketch:type="MSShapeGroup"></path>
        </g>
    </g>
</svg>